<svg width="166" height="56" viewBox="0 0 166 56" fill="none" xmlns="http://www.w3.org/2000/svg">
<path d="M59.544 35V20.672H54.648V18.2H67.536V20.672H62.616V35H59.544ZM68.5678 35V23.096H71.3038L71.5918 25.328C72.0238 24.56 72.6078 23.952 73.3438 23.504C74.0958 23.04 74.9758 22.808 75.9838 22.808V26.048H75.1198C74.4478 26.048 73.8478 26.152 73.3198 26.36C72.7918 26.568 72.3758 26.928 72.0718 27.44C71.7838 27.952 71.6398 28.664 71.6398 29.576V35H68.5678ZM82.1874 35.288C81.1634 35.288 80.3234 35.128 79.6674 34.808C79.0114 34.472 78.5234 34.032 78.2034 33.488C77.8834 32.944 77.7234 32.344 77.7234 31.688C77.7234 30.584 78.1554 29.688 79.0194 29C79.8834 28.312 81.1794 27.968 82.9074 27.968H85.9314V27.68C85.9314 26.864 85.6994 26.264 85.2354 25.88C84.7714 25.496 84.1954 25.304 83.5074 25.304C82.8834 25.304 82.3394 25.456 81.8754 25.76C81.4114 26.048 81.1234 26.48 81.0114 27.056H78.0114C78.0914 26.192 78.3794 25.44 78.8754 24.8C79.3874 24.16 80.0434 23.672 80.8434 23.336C81.6434 22.984 82.5394 22.808 83.5314 22.808C85.2274 22.808 86.5634 23.232 87.5394 24.08C88.5154 24.928 89.0034 26.128 89.0034 27.68V35H86.3874L86.0994 33.08C85.7474 33.72 85.2514 34.248 84.6114 34.664C83.9874 35.08 83.1794 35.288 82.1874 35.288ZM82.8834 32.888C83.7634 32.888 84.4434 32.6 84.9234 32.024C85.4194 31.448 85.7314 30.736 85.8594 29.888H83.2434C82.4274 29.888 81.8434 30.04 81.4914 30.344C81.1394 30.632 80.9634 30.992 80.9634 31.424C80.9634 31.888 81.1394 32.248 81.4914 32.504C81.8434 32.76 82.3074 32.888 82.8834 32.888ZM91.935 35V23.096H94.647L94.887 25.112C95.255 24.408 95.783 23.848 96.471 23.432C97.175 23.016 97.999 22.808 98.943 22.808C100.415 22.808 101.559 23.272 102.375 24.2C103.191 25.128 103.599 26.488 103.599 28.28V35H100.527V28.568C100.527 27.544 100.319 26.76 99.903 26.216C99.487 25.672 98.839 25.4 97.959 25.4C97.095 25.4 96.383 25.704 95.823 26.312C95.279 26.92 95.007 27.768 95.007 28.856V35H91.935ZM105.769 35V32.528L111.841 25.64H105.841V23.096H115.345V25.568L109.177 32.456H115.465V35H105.769ZM122.125 35.288C121.101 35.288 120.261 35.128 119.605 34.808C118.949 34.472 118.461 34.032 118.141 33.488C117.821 32.944 117.661 32.344 117.661 31.688C117.661 30.584 118.093 29.688 118.957 29C119.821 28.312 121.117 27.968 122.845 27.968H125.869V27.68C125.869 26.864 125.637 26.264 125.173 25.88C124.709 25.496 124.133 25.304 123.445 25.304C122.821 25.304 122.277 25.456 121.813 25.76C121.349 26.048 121.061 26.48 120.949 27.056H117.949C118.029 26.192 118.317 25.44 118.813 24.8C119.325 24.16 119.981 23.672 120.781 23.336C121.581 22.984 122.477 22.808 123.469 22.808C125.165 22.808 126.501 23.232 127.477 24.08C128.453 24.928 128.941 26.128 128.941 27.68V35H126.325L126.037 33.08C125.685 33.72 125.189 34.248 124.549 34.664C123.925 35.08 123.117 35.288 122.125 35.288ZM122.821 32.888C123.701 32.888 124.381 32.6 124.861 32.024C125.357 31.448 125.669 30.736 125.797 29.888H123.181C122.365 29.888 121.781 30.04 121.429 30.344C121.077 30.632 120.901 30.992 120.901 31.424C120.901 31.888 121.077 32.248 121.429 32.504C121.781 32.76 122.245 32.888 122.821 32.888ZM141.329 40.28V33.296C140.945 33.824 140.433 34.288 139.793 34.688C139.169 35.088 138.353 35.288 137.345 35.288C136.225 35.288 135.225 35.016 134.345 34.472C133.465 33.928 132.769 33.184 132.257 32.24C131.745 31.296 131.489 30.224 131.489 29.024C131.489 27.824 131.745 26.76 132.257 25.832C132.769 24.888 133.465 24.152 134.345 23.624C135.225 23.08 136.225 22.808 137.345 22.808C138.241 22.808 139.025 22.976 139.697 23.312C140.369 23.648 140.913 24.12 141.329 24.728L141.665 23.096H144.401V40.28H141.329ZM137.993 32.6C138.985 32.6 139.793 32.272 140.417 31.616C141.057 30.944 141.377 30.088 141.377 29.048C141.377 28.008 141.057 27.16 140.417 26.504C139.793 25.832 138.985 25.496 137.993 25.496C137.017 25.496 136.209 25.824 135.569 26.48C134.929 27.136 134.609 27.984 134.609 29.024C134.609 30.064 134.929 30.92 135.569 31.592C136.209 32.264 137.017 32.6 137.993 32.6ZM152.833 35C151.585 35 150.585 34.696 149.833 34.088C149.081 33.48 148.705 32.4 148.705 30.848V25.664H146.665V23.096H148.705L149.065 19.904H151.777V23.096H154.993V25.664H151.777V30.872C151.777 31.448 151.897 31.848 152.137 32.072C152.393 32.28 152.825 32.384 153.433 32.384H154.921V35H152.833Z" fill="black"/>
<path fill-rule="evenodd" clip-rule="evenodd" d="M33.9484 20.7521C30.0522 20.7521 26.8937 23.8818 26.8937 27.7424V28.2317H20.2686V27.7424C20.2686 20.2561 26.3932 14.1873 33.9484 14.1873V20.7521Z" fill="url(#paint0_linear_613_301)"/>
<path fill-rule="evenodd" clip-rule="evenodd" d="M39.5219 28.2319V27.7429H46.1473V28.2319C46.1473 35.7184 40.0224 41.7873 32.4673 41.7873V35.2225C36.3635 35.2225 39.5219 32.0926 39.5219 28.2319Z" fill="url(#paint1_linear_613_301)"/>
<path fill-rule="evenodd" clip-rule="evenodd" d="M33.7011 10.8657V23.8291L45.0559 17.4697L33.7011 10.8657ZM32.7145 45.1086L32.7145 32.1453L21.3599 38.5045L32.7145 45.1086Z" fill="#4951FF"/>
<defs>
<linearGradient id="paint0_linear_613_301" x1="33.3638" y1="17.8173" x2="22.1392" y2="18.1319" gradientUnits="userSpaceOnUse">
<stop stop-color="#3A41CE"/>
<stop offset="1" stop-color="#4951FF"/>
</linearGradient>
<linearGradient id="paint1_linear_613_301" x1="33.0519" y1="38.1573" x2="44.2764" y2="37.8425" gradientUnits="userSpaceOnUse">
<stop stop-color="#3A41CE"/>
<stop offset="1" stop-color="#4951FF"/>
</linearGradient>
</defs>
</svg>
